<svg width="680" height="716" viewBox="0 0 680 716" xmlns="http://www.w3.org/2000/svg" font-family="Arial, sans-serif">
  <defs>
    <marker id="arrow2" viewBox="0 0 10 10" refX="8" refY="5" markerWidth="6" markerHeight="6" orient="auto-start-reverse">
      <path d="M2 1L8 5L2 9" fill="none" stroke="#5F5E5A" stroke-width="1.5" stroke-linecap="round" stroke-linejoin="round"/>
    </marker>
  </defs>
  <rect x="0" y="0" width="680" height="716" fill="#FFFFFF"/>

  <rect x="200" y="40" width="280" height="56" rx="8" fill="#F1EFE8" stroke="#5F5E5A" stroke-width="0.5"/>
  <text x="340" y="58" text-anchor="middle" font-size="14" font-weight="600" fill="#2C2C2A">Login</text>
  <text x="340" y="76" text-anchor="middle" font-size="12" fill="#444441">POST /api/v1/auth/login</text>
  <line x1="340" y1="96" x2="340" y2="156" stroke="#5F5E5A" stroke-width="0.5" marker-end="url(#arrow2)"/>

  <rect x="200" y="156" width="280" height="56" rx="8" fill="#E6F1FB" stroke="#185FA5" stroke-width="0.5"/>
  <text x="340" y="174" text-anchor="middle" font-size="14" font-weight="600" fill="#042C53">AuthService</text>
  <text x="340" y="192" text-anchor="middle" font-size="12" fill="#0C447C">Valida e-mail e senha (BCrypt)</text>
  <line x1="340" y1="212" x2="340" y2="272" stroke="#5F5E5A" stroke-width="0.5" marker-end="url(#arrow2)"/>

  <rect x="200" y="272" width="280" height="56" rx="8" fill="#E1F5EE" stroke="#0F6E56" stroke-width="0.5"/>
  <text x="340" y="290" text-anchor="middle" font-size="14" font-weight="600" fill="#04342C">JwtService</text>
  <text x="340" y="308" text-anchor="middle" font-size="12" fill="#085041">Gera token assinado (HS256)</text>
  <line x1="340" y1="328" x2="340" y2="388" stroke="#5F5E5A" stroke-width="0.5" marker-end="url(#arrow2)"/>

  <rect x="200" y="388" width="280" height="56" rx="8" fill="#F1EFE8" stroke="#5F5E5A" stroke-width="0.5"/>
  <text x="340" y="406" text-anchor="middle" font-size="14" font-weight="600" fill="#2C2C2A">Nova requisição</text>
  <text x="340" y="424" text-anchor="middle" font-size="12" fill="#444441">Header Authorization: Bearer</text>
  <line x1="340" y1="444" x2="340" y2="504" stroke="#5F5E5A" stroke-width="0.5" marker-end="url(#arrow2)"/>

  <rect x="200" y="504" width="280" height="56" rx="8" fill="#FAECE7" stroke="#993C1D" stroke-width="0.5"/>
  <text x="340" y="522" text-anchor="middle" font-size="14" font-weight="600" fill="#4A1B0C">Filtro JWT</text>
  <text x="340" y="540" text-anchor="middle" font-size="12" fill="#712B13">Valida assinatura e perfil</text>

  <path d="M340 560 L340 590 L240 590 L240 620" fill="none" stroke="#5F5E5A" stroke-width="0.5" marker-end="url(#arrow2)"/>
  <path d="M340 560 L340 590 L480 590 L480 620" fill="none" stroke="#5F5E5A" stroke-width="0.5" marker-end="url(#arrow2)"/>

  <rect x="140" y="620" width="200" height="56" rx="8" fill="#EAF3DE" stroke="#3B6D11" stroke-width="0.5"/>
  <text x="240" y="638" text-anchor="middle" font-size="14" font-weight="600" fill="#173404">Acesso liberado</text>
  <text x="240" y="656" text-anchor="middle" font-size="12" fill="#27500A">Controller processa</text>

  <rect x="380" y="620" width="200" height="56" rx="8" fill="#FCEBEB" stroke="#A32D2D" stroke-width="0.5"/>
  <text x="480" y="638" text-anchor="middle" font-size="14" font-weight="600" fill="#501313">Acesso negado</text>
  <text x="480" y="656" text-anchor="middle" font-size="12" fill="#791F1F">Erro 401 ou 403</text>
</svg>
